<svg width="180" height="180" viewBox="0 0 180 180" fill="none" xmlns="http://www.w3.org/2000/svg">
<rect width="180" height="180" rx="90" fill="#04223A"/>
<path fill-rule="evenodd" clip-rule="evenodd" d="M107.154 26C129.15 26.365 154.995 38.2358 158 67.8048H136.802C136.71 66.9016 136.593 66.0108 136.464 65.1386H144.374C142.328 52.5378 135.721 43.6857 127.153 37.8399C120.816 33.5159 113.38 30.8189 105.906 29.5446C105.875 29.5322 105.838 29.5198 105.808 29.5136C105.838 29.526 105.869 29.5322 105.906 29.5446C105.906 29.5446 105.918 29.5446 105.918 29.5507C106.828 29.8724 107.725 30.2126 108.616 30.5838C108.635 30.59 108.653 30.6024 108.672 30.6085C109.68 31.0292 110.681 31.4746 111.665 31.9509C111.806 32.0189 111.948 32.087 112.089 32.155C112.243 32.2293 112.396 32.3097 112.556 32.3901C112.636 32.4272 112.71 32.4705 112.783 32.5076C113.128 32.687 113.472 32.8664 113.816 33.052C113.871 33.0829 113.92 33.1139 113.976 33.1386C114.154 33.2376 114.332 33.3366 114.51 33.4355C114.584 33.4788 114.658 33.5159 114.732 33.5592C115.07 33.751 115.402 33.949 115.734 34.1531C115.783 34.184 115.832 34.215 115.887 34.2459C116.059 34.3511 116.231 34.4562 116.403 34.5676C116.49 34.6232 116.576 34.6789 116.668 34.7346C116.92 34.8954 117.172 35.0563 117.418 35.2233C117.553 35.3161 117.694 35.4027 117.829 35.4955C117.977 35.5944 118.118 35.6934 118.266 35.7924C118.333 35.8357 118.395 35.8852 118.462 35.9285C118.745 36.1264 119.022 36.3244 119.304 36.5285C119.415 36.6089 119.532 36.6955 119.642 36.776C119.765 36.8687 119.888 36.9615 120.011 37.0543C120.171 37.1719 120.325 37.2956 120.478 37.4193C120.65 37.5554 120.829 37.6915 121.001 37.8338C121.124 37.9327 121.247 38.0317 121.363 38.1307C121.824 38.508 122.273 38.8977 122.722 39.2998C122.838 39.405 122.961 39.5101 123.078 39.6215C123.195 39.7267 123.305 39.8318 123.422 39.937C123.551 40.0607 123.68 40.1844 123.816 40.3081C124.012 40.4999 124.209 40.6855 124.406 40.8772C124.492 40.9639 124.584 41.0566 124.67 41.1432C124.799 41.2731 124.922 41.3969 125.051 41.533C125.168 41.6567 125.285 41.7742 125.395 41.8979C125.573 42.0897 125.752 42.2815 125.93 42.4732C126.028 42.5846 126.127 42.6897 126.225 42.8011C126.342 42.931 126.458 43.0609 126.569 43.197C126.686 43.3331 126.796 43.4692 126.913 43.6053C127.073 43.797 127.233 43.9826 127.386 44.1806C127.497 44.3166 127.602 44.4465 127.706 44.5826C127.792 44.694 127.878 44.7991 127.964 44.9105C128.155 45.1517 128.339 45.3992 128.523 45.6466C128.585 45.727 128.64 45.8075 128.696 45.8879C128.843 46.092 128.991 46.29 129.132 46.5003C129.187 46.5807 129.243 46.6611 129.298 46.7415C129.47 46.9952 129.642 47.2488 129.814 47.5024C129.888 47.62 129.962 47.7313 130.042 47.8488C130.164 48.0406 130.281 48.2262 130.404 48.4179C130.466 48.5169 130.527 48.6221 130.595 48.7211C130.761 48.9932 130.92 49.2592 131.08 49.5376C131.123 49.6118 131.166 49.6922 131.209 49.7665C131.338 49.9954 131.467 50.2304 131.597 50.4593C131.64 50.5397 131.683 50.6201 131.726 50.7006C131.879 50.9913 132.033 51.282 132.18 51.5728C132.242 51.6903 132.303 51.814 132.359 51.9378C132.451 52.1295 132.549 52.3213 132.641 52.5192C132.703 52.6491 132.764 52.7729 132.82 52.9028C132.955 53.1935 133.084 53.4842 133.213 53.7812C133.256 53.8863 133.299 53.9853 133.342 54.0905C133.446 54.3379 133.551 54.5853 133.655 54.839C133.692 54.9379 133.735 55.0307 133.772 55.1297C133.895 55.439 134.012 55.7545 134.129 56.07C134.172 56.1875 134.215 56.3112 134.258 56.4288C134.35 56.6762 134.436 56.9298 134.522 57.1835C134.547 57.2639 134.577 57.3443 134.602 57.4247C134.713 57.7587 134.817 58.0928 134.922 58.433C134.965 58.5691 135.001 58.7052 135.044 58.8351C135.118 59.0764 135.186 59.3176 135.253 59.5589C135.29 59.6888 135.327 59.8125 135.358 59.9424C135.444 60.2579 135.524 60.5795 135.604 60.9012C135.641 61.0435 135.671 61.192 135.708 61.3342C135.776 61.6126 135.837 61.891 135.899 62.1755C135.917 62.2745 135.942 62.3673 135.96 62.4663C136.028 62.8003 136.095 63.1405 136.163 63.4808C136.188 63.623 136.212 63.7653 136.243 63.9014C136.298 64.1922 136.347 64.4891 136.39 64.786C136.55 65.7758 136.685 66.7841 136.79 67.8171H106.269C106.232 67.3594 106.176 66.914 106.109 66.4686C106.078 66.2644 106.047 66.0541 106.01 65.85C105.722 64.2169 105.261 62.7013 104.64 61.3033C104.56 61.1239 104.48 60.9507 104.394 60.7775C102.169 56.1875 98.162 52.9337 92.9317 51.146C92.8948 51.1336 92.8579 51.1212 92.8149 51.1088C87.8673 52.7605 84.5607 55.7421 84.5607 60.1342V60.629C84.7574 65.7325 87.9103 70.4647 97.111 73.2731L113.22 78.2219C129.839 83.3439 151.54 91.0207 151.54 113.89C151.54 138.98 127.294 154 99.4834 154H98.2787C96.9082 153.969 95.5376 153.907 94.1609 153.814C92.4215 153.938 90.6576 154 88.8814 154H87.6768C86.3062 153.969 84.9356 153.907 83.5651 153.814C81.8196 153.938 80.0618 154 78.2856 154C77.8861 154 77.4866 154 77.081 153.994C76.282 153.981 75.4769 153.957 74.6717 153.92C73.8666 153.882 73.0615 153.833 72.2563 153.771C69.8409 153.586 67.4317 153.282 65.0409 152.856C63.8485 152.645 62.6562 152.404 61.4761 152.126C55.1826 150.666 49.1287 148.315 43.7263 144.944C43.0503 144.523 42.3865 144.084 41.7288 143.632C31.2867 136.376 23.6103 124.988 22 108.428H72.8709C73.6761 117.602 78.5069 126.027 89.7111 129.157C96.4595 127.289 100.172 123.454 100.172 118.159C100.172 114.663 98.2111 111.707 94.5051 109.102C94.1424 108.849 93.7614 108.589 93.3619 108.341C91.0141 106.875 88.0886 105.521 84.6222 104.24C84.069 104.036 83.5036 103.832 82.9259 103.634C81.7766 103.238 80.5719 102.848 79.312 102.465L65.0654 98.0294C61.9801 97.0396 58.944 95.8767 56.0492 94.5158C54.8445 93.9466 53.6584 93.3466 52.5029 92.7033C52.2693 92.5734 52.0419 92.4435 51.8145 92.3135C48.846 90.6124 46.0987 88.6515 43.6772 86.3936C43.1179 85.874 42.577 85.3358 42.0546 84.779C40.6656 83.3006 39.4056 81.7108 38.3116 79.9849C38.1764 79.7684 38.0412 79.5519 37.9121 79.3354C35.1464 74.733 33.5239 69.2461 33.5239 62.6951C33.5239 62.4415 33.53 62.1879 33.5362 61.9343C33.5607 60.6847 33.6529 59.4723 33.8066 58.2907C33.8742 57.7711 33.9602 57.2639 34.0524 56.7566C34.2737 55.5256 34.5625 54.3317 34.919 53.1688C35.1218 52.513 35.3431 51.8759 35.5889 51.2449C35.8348 50.614 36.0991 49.9954 36.3818 49.3891C37.0886 47.8736 37.9183 46.4261 38.8648 45.0528C39.0553 44.7806 39.2458 44.5084 39.4425 44.2362C39.8359 43.698 40.2476 43.1722 40.6779 42.6588C42.0054 41.069 43.4928 39.5968 45.1215 38.2358C46.9161 36.7327 48.8829 35.3656 50.991 34.1407C51.2983 33.9613 51.6117 33.7819 51.9313 33.6087C57.2968 30.6457 63.5351 28.5424 70.222 27.3052C70.6153 27.231 71.0087 27.163 71.4082 27.0949C72.201 26.9588 73 26.8413 73.8051 26.7299C75.4154 26.5134 77.0441 26.3402 78.6851 26.2227C80.3322 26.099 81.9917 26.0309 83.6573 26.0062C84.0752 26.0062 84.4931 26 84.9111 26H85.9559C85.9559 26 85.9989 26.0124 86.0174 26.0124C86.171 26.0124 86.3185 26.0186 86.4722 26.0247C86.7303 26.0309 86.9946 26.0371 87.2527 26.0495C87.3326 26.0495 87.4187 26.0557 87.4986 26.0619C87.8489 26.0742 88.1992 26.0928 88.5495 26.1113C88.5741 26.1113 88.5925 26.1113 88.6171 26.1113C88.9982 26.1361 89.3854 26.1608 89.7726 26.1918C89.791 26.1918 89.8095 26.1918 89.8279 26.1918C89.8279 26.1918 89.8525 26.1918 89.8648 26.1918C89.8525 26.1918 89.8402 26.1918 89.8279 26.1918C91.7086 26.068 93.6016 26 95.513 26H96.5578C97.8362 26.0309 99.1269 26.0928 100.424 26.1918C102.304 26.068 104.204 26 106.109 26H107.154ZM87.6338 49.8902C79.8467 50.9233 73.9772 54.276 73.9772 60.128V60.6228C74.1739 65.7263 77.3268 70.4585 86.5275 73.267L102.636 78.2157C119.255 83.3377 140.957 91.0145 140.957 113.884C140.957 131.638 128.812 144.344 111.862 150.264C120.472 148.742 128.247 145.637 134.411 141.183C143.36 134.718 148.91 125.452 148.91 113.884C148.91 103.492 144.055 96.5942 137.085 91.5589C129.98 86.4245 120.798 83.3315 112.464 80.7644L96.355 75.8156L95.427 75.5187C90.8543 73.9969 87.5231 71.9246 85.2921 69.3389C82.8706 66.5304 81.9302 63.3261 81.9302 60.1218C81.9302 55.4019 84.7881 52.0862 88.5741 50.0325C88.5557 50.0325 88.5372 50.0325 88.5188 50.0263C88.2545 49.983 87.9841 49.9397 87.7137 49.9026C87.6891 49.9026 87.6645 49.8964 87.6399 49.8902H87.6338ZM77.9906 49.7789C76.0915 49.983 74.2968 50.317 72.6497 50.7872C72.1641 50.9233 71.6909 51.0779 71.2299 51.2387C66.5036 52.9151 63.3691 55.8535 63.3691 60.128C63.3691 65.417 66.4237 70.3719 75.9194 73.2731L92.0282 78.2219C108.647 83.3439 130.349 91.0207 130.349 113.89C130.349 114.23 130.343 114.571 130.33 114.905C130.33 114.997 130.33 115.09 130.324 115.189C130.318 115.455 130.306 115.727 130.287 115.993C130.287 116.086 130.281 116.179 130.275 116.266C130.257 116.593 130.226 116.928 130.201 117.255C130.195 117.348 130.183 117.435 130.177 117.528C130.152 117.794 130.121 118.06 130.091 118.326C130.078 118.406 130.072 118.486 130.06 118.567C129.98 119.216 129.876 119.86 129.759 120.497C129.74 120.602 129.722 120.701 129.704 120.8C129.581 121.431 129.445 122.062 129.292 122.68C129.261 122.792 129.236 122.903 129.206 123.014C129.15 123.225 129.095 123.435 129.034 123.645C129.009 123.738 128.984 123.831 128.954 123.924C128.862 124.233 128.769 124.542 128.671 124.852C128.653 124.92 128.628 124.982 128.603 125.05C128.53 125.285 128.45 125.514 128.364 125.743C128.327 125.841 128.296 125.934 128.259 126.033C128.173 126.275 128.081 126.516 127.989 126.751C127.964 126.807 127.946 126.868 127.921 126.924C127.817 127.19 127.706 127.45 127.595 127.71C127.546 127.821 127.497 127.932 127.448 128.044C127.374 128.205 127.307 128.365 127.233 128.526C127.171 128.668 127.104 128.805 127.042 128.947C126.919 129.207 126.79 129.466 126.661 129.72C126.624 129.794 126.587 129.862 126.551 129.937C126.446 130.141 126.342 130.339 126.231 130.537C126.17 130.648 126.108 130.766 126.047 130.877C125.948 131.056 125.844 131.236 125.739 131.415C125.684 131.514 125.623 131.613 125.567 131.712C125.432 131.947 125.291 132.176 125.143 132.405C125.082 132.504 125.014 132.609 124.953 132.708C124.842 132.875 124.738 133.042 124.627 133.209C124.559 133.308 124.498 133.407 124.43 133.506C124.277 133.735 124.117 133.957 123.957 134.18C123.871 134.304 123.785 134.421 123.693 134.539C123.601 134.663 123.514 134.786 123.422 134.91C123.324 135.04 123.232 135.164 123.133 135.294C123.06 135.393 122.986 135.485 122.906 135.578C122.746 135.782 122.58 135.986 122.414 136.191C122.285 136.345 122.162 136.5 122.033 136.648C121.947 136.747 121.867 136.846 121.781 136.945C121.658 137.081 121.542 137.224 121.419 137.36C121.29 137.502 121.161 137.65 121.031 137.793C120.89 137.947 120.743 138.102 120.595 138.257C120.497 138.356 120.398 138.461 120.3 138.56C120.189 138.677 120.079 138.789 119.962 138.9C119.556 139.308 119.145 139.704 118.721 140.094C118.591 140.211 118.469 140.329 118.339 140.44C118.217 140.552 118.094 140.663 117.965 140.774C117.891 140.836 117.817 140.898 117.749 140.966C117.252 141.399 116.735 141.826 116.213 142.234C116.145 142.284 116.078 142.339 116.016 142.389C115.5 142.791 114.965 143.187 114.424 143.57C114.326 143.639 114.228 143.707 114.129 143.775C113.982 143.88 113.828 143.985 113.681 144.09C113.582 144.158 113.49 144.22 113.392 144.288C111.542 145.525 109.569 146.657 107.498 147.666C107.443 147.69 107.387 147.721 107.332 147.746C105.396 148.68 103.38 149.521 101.284 150.251C109.882 148.73 117.651 145.624 123.809 141.176C132.758 134.712 138.308 125.446 138.308 113.878C138.308 103.485 133.453 96.5881 126.483 91.5527C119.378 86.4183 110.196 83.3253 101.862 80.7582L85.7531 75.8094L84.825 75.5125C80.2523 73.9907 76.9212 71.9184 74.6902 69.3327C72.2686 66.5243 71.3283 63.3199 71.3283 60.1156C71.3283 55.1792 74.4505 51.7707 78.5007 49.7479C78.5253 49.7356 78.5499 49.7232 78.5745 49.7108C78.3778 49.7294 78.1873 49.7479 77.9967 49.7665L77.9906 49.7789ZM52.0296 111.094C52.3369 112.814 52.804 114.484 53.4371 116.08C53.474 116.173 53.5108 116.259 53.5477 116.352C54.4942 118.653 55.8033 120.794 57.5242 122.674C57.727 122.897 57.9422 123.12 58.1573 123.336C61.7527 126.924 66.9707 129.466 74.1985 130.215C71.5803 129.04 69.3247 127.53 67.4194 125.743C63.1417 121.734 60.8308 116.532 59.9396 111.1H52.0296V111.094ZM62.6254 111.094C64.3156 120.484 70.6461 128.563 84.3087 130.153C83.0734 130.289 81.7643 130.376 80.3999 130.419C81.7704 130.382 83.0734 130.289 84.3149 130.153C84.4132 130.141 84.5177 130.135 84.616 130.122C82.0777 128.959 79.8897 127.481 78.0275 125.736C73.7498 121.728 71.4389 116.525 70.5477 111.094H62.6377H62.6254ZM116.508 29.5446C131.234 34.7593 144.116 45.9992 147.06 65.1386H154.97C152.923 52.5378 146.316 43.6857 137.749 37.8399C131.418 33.5159 123.982 30.8189 116.508 29.5446Z" fill="white"/>
</svg>
