<svg width="454" height="184" viewBox="0 0 454 184" fill="none" xmlns="http://www.w3.org/2000/svg">
<g clip-path="url(#clip0_127_39)">
<path fill-rule="evenodd" clip-rule="evenodd" d="M423.316 17.8537L438 103.886H402.117L399.983 88.5789H381.866L373.457 103.886H336.745L386.84 17.8537H423.316ZM359.674 102.032H364.963L372.354 88.5789H367.066L359.674 102.032ZM367.074 102.032H372.362L379.754 88.5789H374.466L367.074 102.032ZM422.883 102.032H428.407L414.354 19.7074H408.83L422.883 102.032ZM430.283 102.032H435.807L421.754 19.7074H416.23L430.283 102.032ZM390.987 72.0847H397.854L396.502 62.0806L390.987 72.0847ZM383.582 72.0847H388.871L396.086 59.0011L395.047 51.2981L383.582 72.0847ZM376.183 72.0847H381.471L394.631 48.2186L393.592 40.5155L376.183 72.0804V72.0847Z" fill="white"/>
<path fill-rule="evenodd" clip-rule="evenodd" d="M294.741 17.8537L290.963 35.5995L310.965 17.8537H351.94L309.304 55.3539L334.054 103.886H296.629L283.808 77.8437L281.589 79.7963L276.498 103.886H241.443L259.686 17.8537H294.741ZM266.794 79.7963L262.094 102.032H267.605L272.511 78.8114L280.735 71.5815L279.349 68.7643L266.794 79.8006V79.7963ZM274.193 79.7963L269.493 102.032H275.005L279.911 78.8114L282.967 76.1233L281.58 73.3019L274.193 79.7963ZM294.505 55.3539L318.31 102.032H323.632L299.604 54.9109L339.625 19.7074H335.028L294.5 55.3539H294.505ZM301.904 55.3539L325.709 102.032H331.032L307.004 54.9109L347.025 19.7074H342.428L301.9 55.3539H301.904ZM272.713 51.7927L279.503 45.767L285.049 19.7074H279.537L272.708 51.7927H272.713ZM281.838 43.6983L288.628 37.6726L292.453 19.7117H286.942L281.834 43.6983H281.838Z" fill="white"/>
<path fill-rule="evenodd" clip-rule="evenodd" d="M250.333 17.8537L232.095 103.886H197.04L215.278 17.8537H250.333ZM217.686 102.032H223.197L240.65 19.7074H235.138L217.686 102.032ZM225.086 102.032H230.597L248.05 19.7074H242.538L225.086 102.032Z" fill="white"/>
<path fill-rule="evenodd" clip-rule="evenodd" d="M206.062 17.8537L202.272 35.6555H156.679L153.482 50.7261H196.589L192.799 68.6439H149.692L146.022 85.9682H191.614L187.824 103.886H107.292L125.53 17.8537H206.062ZM173.415 102.032H178.926L181.931 87.8219H176.42L173.415 102.032ZM180.815 102.032H186.326L189.331 87.8219H183.82L180.815 102.032ZM134.888 68.6439L131.218 85.9682H136.729L140.399 68.6439H134.888ZM138.618 85.9682H144.129L147.799 68.6439H142.287L138.618 85.9682ZM178.386 66.7902H183.897L186.901 52.5798H181.39L178.386 66.7902ZM185.79 66.7902H191.301L194.306 52.5798H188.794L185.79 66.7902ZM141.875 35.6555L138.678 50.7261H144.189L147.387 35.6555H141.875ZM146.078 50.7261H151.589L154.787 35.6555H149.275L146.078 50.7261ZM187.863 33.8017H193.374L196.375 19.7117H190.863L187.863 33.8017ZM195.267 33.8017H200.778L203.779 19.7117H198.267L195.267 33.8017Z" fill="white"/>
<path fill-rule="evenodd" clip-rule="evenodd" d="M75.4696 16.0045C90.8316 16.2582 108.881 24.5118 110.98 45.0704H96.1755C96.1112 44.4425 96.0296 43.8231 95.9395 43.2167H101.464C100.034 34.4556 95.4201 28.3009 89.4367 24.2365C85.0113 21.2301 79.8177 19.3549 74.5982 18.4689C74.5768 18.4603 74.551 18.4517 74.5296 18.4474C74.551 18.456 74.5725 18.4603 74.5982 18.4689C74.5982 18.4689 74.6068 18.4689 74.6068 18.4732C75.2421 18.6969 75.8687 18.9334 76.4911 19.1915C76.504 19.1958 76.5169 19.2044 76.5298 19.2087C77.2337 19.5011 77.9333 19.8108 78.6201 20.142C78.7188 20.1893 78.8176 20.2366 78.9163 20.2839C79.0236 20.3355 79.1309 20.3914 79.2425 20.4474C79.2983 20.4732 79.3498 20.5033 79.4013 20.5291C79.6417 20.6538 79.882 20.7785 80.1224 20.9076C80.161 20.9291 80.1954 20.9506 80.234 20.9678C80.3585 21.0366 80.483 21.1054 80.6074 21.1742C80.6589 21.2043 80.7104 21.2301 80.762 21.2602C80.998 21.3936 81.2298 21.5312 81.4616 21.6731C81.4959 21.6946 81.5303 21.7161 81.5689 21.7377C81.6891 21.8108 81.8093 21.8839 81.9295 21.9613C81.9895 22 82.0496 22.0387 82.114 22.0774C82.29 22.1893 82.466 22.3011 82.6377 22.4172C82.7321 22.4817 82.8308 22.5419 82.9253 22.6064C83.0283 22.6753 83.127 22.7441 83.23 22.8129C83.2772 22.843 83.3202 22.8774 83.3674 22.9075C83.5648 23.0451 83.758 23.1828 83.9554 23.3247C84.0327 23.3806 84.1142 23.4408 84.1915 23.4967C84.2773 23.5613 84.3632 23.6258 84.449 23.6903C84.5606 23.772 84.6679 23.858 84.7752 23.944C84.8954 24.0387 85.0199 24.1333 85.1401 24.2322C85.2259 24.301 85.3118 24.3698 85.3933 24.4387C85.7152 24.701 86.0286 24.972 86.3419 25.2515C86.4235 25.3247 86.5093 25.3978 86.5909 25.4752C86.6724 25.5483 86.7497 25.6214 86.8312 25.6945C86.9214 25.7806 87.0115 25.8666 87.1059 25.9526C87.2433 26.0859 87.3807 26.215 87.518 26.3483C87.5781 26.4085 87.6425 26.473 87.7026 26.5332C87.7927 26.6236 87.8786 26.7096 87.9687 26.8042C88.0502 26.8902 88.1318 26.9719 88.2091 27.058C88.3335 27.1913 88.458 27.3246 88.5825 27.4579C88.6512 27.5354 88.7198 27.6085 88.7885 27.6859C88.8701 27.7762 88.9516 27.8665 89.0289 27.9612C89.1104 28.0558 89.1877 28.1504 89.2693 28.245C89.3809 28.3784 89.4925 28.5074 89.5998 28.645C89.677 28.7396 89.75 28.83 89.823 28.9246C89.8831 29.002 89.9431 29.0751 90.0032 29.1525C90.1363 29.3203 90.2651 29.4923 90.3938 29.6643C90.4368 29.7203 90.4754 29.7762 90.514 29.8321C90.617 29.974 90.72 30.1116 90.8188 30.2579C90.8574 30.3138 90.896 30.3697 90.9347 30.4256C91.0548 30.602 91.175 30.7783 91.2952 30.9546C91.3467 31.0364 91.3982 31.1138 91.454 31.1955C91.5399 31.3288 91.6214 31.4578 91.7073 31.5912C91.7502 31.66 91.7931 31.7331 91.8403 31.8019C91.9562 31.9912 92.0678 32.1761 92.1794 32.3697C92.2095 32.4213 92.2395 32.4772 92.2696 32.5288C92.3597 32.6879 92.4498 32.8514 92.54 33.0105C92.57 33.0664 92.6001 33.1223 92.6301 33.1782C92.7374 33.3804 92.8447 33.5825 92.9477 33.7847C92.9907 33.8664 93.0336 33.9524 93.0722 34.0384C93.1366 34.1718 93.2053 34.3051 93.2697 34.4427C93.3126 34.533 93.3555 34.6191 93.3941 34.7094C93.4886 34.9115 93.5787 35.1137 93.6688 35.3201C93.6989 35.3932 93.7289 35.4621 93.759 35.5352C93.832 35.7072 93.9049 35.8792 93.9779 36.0556C94.0036 36.1244 94.0337 36.1889 94.0594 36.2577C94.1453 36.4728 94.2268 36.6921 94.3084 36.9115C94.3384 36.9932 94.3685 37.0792 94.3985 37.1609C94.4629 37.333 94.523 37.5093 94.5831 37.6857C94.6003 37.7416 94.6217 37.7975 94.6389 37.8534C94.7162 38.0856 94.7891 38.3179 94.8621 38.5544C94.8921 38.6491 94.9179 38.7437 94.9479 38.834C94.9995 39.0018 95.0467 39.1695 95.0939 39.3372C95.1196 39.4275 95.1454 39.5136 95.1669 39.6039C95.2269 39.8232 95.2827 40.0469 95.3385 40.2705C95.3643 40.3695 95.3858 40.4727 95.4115 40.5716C95.4587 40.7652 95.5017 40.9587 95.5446 41.1565C95.5575 41.2254 95.5746 41.2899 95.5875 41.3587C95.6347 41.5909 95.6819 41.8275 95.7291 42.064C95.7463 42.163 95.7635 42.2619 95.7849 42.3565C95.8236 42.5587 95.8579 42.7651 95.888 42.9715C95.9996 43.6597 96.094 44.3608 96.167 45.079H74.8515C74.8257 44.7608 74.7871 44.4511 74.7399 44.1414C74.7184 43.9995 74.697 43.8532 74.6712 43.7113C74.4695 42.5759 74.1475 41.5221 73.714 40.5501C73.6582 40.4254 73.6024 40.3049 73.5423 40.1845C71.9885 36.9932 69.19 34.7309 65.5372 33.4879C65.5115 33.4793 65.4857 33.4707 65.4557 33.4621C62.0004 34.6105 59.6911 36.6835 59.6911 39.7372V40.0813C59.8285 43.6296 62.0304 46.9198 68.456 48.8725L79.7061 52.3133C91.3124 55.8745 106.468 61.212 106.468 77.1127C106.468 94.5574 89.5354 105 70.1128 105H69.2715C68.3143 104.979 67.3572 104.936 66.3957 104.871C65.181 104.957 63.9491 105 62.7086 105H61.8673C60.9101 104.979 59.953 104.936 58.9958 104.871C57.7768 104.957 56.5492 105 55.3087 105C55.0297 105 54.7507 105 54.4674 104.996C53.9094 104.987 53.3471 104.97 52.7849 104.944C52.2226 104.918 51.6603 104.884 51.098 104.841C49.4111 104.712 47.7285 104.501 46.0589 104.204C45.2261 104.058 44.3934 103.891 43.5693 103.697C39.174 102.682 34.9461 101.048 31.1732 98.7035C30.7011 98.4111 30.2375 98.1057 29.7782 97.7917C22.4856 92.7467 17.1246 84.8286 16 73.3149H51.5272C52.0895 79.6932 55.4632 85.5512 63.2881 87.7275C68.001 86.4286 70.5935 83.762 70.5935 80.0803C70.5935 77.6503 69.2243 75.5944 66.6361 73.7837C66.3828 73.6074 66.1167 73.4267 65.8377 73.2547C64.198 72.2354 62.1549 71.2934 59.7341 70.4031C59.3478 70.2612 58.9529 70.1193 58.5494 69.9816C57.7467 69.7064 56.9054 69.4354 56.0255 69.1688L46.076 66.085C43.9213 65.3968 41.8009 64.5882 39.7792 63.642C38.938 63.2463 38.1095 62.8291 37.3026 62.3818C37.1395 62.2915 36.9807 62.2012 36.8219 62.1109C34.7487 60.9281 32.83 59.5647 31.1389 57.9948C30.7483 57.6336 30.3706 57.2594 30.0057 56.8723C29.0357 55.8444 28.1557 54.739 27.3917 53.539C27.2973 53.3885 27.2029 53.238 27.1127 53.0874C25.1812 49.8875 24.048 46.0725 24.048 41.5178C24.048 41.3415 24.0523 41.1651 24.0566 40.9888C24.0738 40.12 24.1382 39.277 24.2455 38.4555C24.2927 38.0942 24.3528 37.7416 24.4172 37.3889C24.5717 36.533 24.7734 35.7029 25.0224 34.8943C25.164 34.4384 25.3185 33.9954 25.4902 33.5567C25.6619 33.118 25.8465 32.6879 26.0439 32.2664C26.5376 31.2127 27.117 30.2063 27.778 29.2514C27.9111 29.0622 28.0441 28.873 28.1815 28.6837C28.4562 28.3095 28.7438 27.944 29.0442 27.587C29.9714 26.4816 31.0101 25.458 32.1476 24.5118C33.4009 23.4666 34.7744 22.5161 36.2467 21.6645C36.4613 21.5398 36.6802 21.4151 36.9034 21.2947C40.6506 19.2345 45.0072 17.7722 49.6772 16.912C49.952 16.8603 50.2267 16.813 50.5057 16.7657C51.0594 16.6711 51.6174 16.5894 52.1796 16.512C53.3042 16.3614 54.4417 16.241 55.5877 16.1593C56.7381 16.0733 57.897 16.026 59.0602 16.0088C59.352 16.0088 59.6439 16.0045 59.9358 16.0045H60.6655C60.6655 16.0045 60.6955 16.0131 60.7084 16.0131C60.8157 16.0131 60.9187 16.0174 61.026 16.0217C61.2063 16.026 61.3909 16.0303 61.5712 16.0389C61.627 16.0389 61.6871 16.0432 61.7429 16.0475C61.9875 16.0561 62.2322 16.069 62.4768 16.0819C62.494 16.0819 62.5069 16.0819 62.524 16.0819C62.7902 16.0991 63.0606 16.1163 63.331 16.1378C63.3439 16.1378 63.3567 16.1378 63.3696 16.1378C63.3696 16.1378 63.3868 16.1378 63.3954 16.1378C63.3868 16.1378 63.3782 16.1378 63.3696 16.1378C64.6831 16.0518 66.0051 16.0045 67.34 16.0045H68.0697C68.9625 16.026 69.8638 16.069 70.7695 16.1378C72.083 16.0518 73.4093 16.0045 74.7399 16.0045H75.4696ZM61.8373 32.6148C56.399 33.3331 52.2998 35.6642 52.2998 39.7329V40.077C52.4372 43.6253 54.6391 46.9155 61.0647 48.8682L72.3147 52.309C83.9211 55.8702 99.0771 61.2077 99.0771 77.1084C99.0771 89.4522 90.5956 98.2863 78.7575 102.402C84.7709 101.344 90.2007 99.1853 94.5058 96.0886C100.755 91.594 104.631 85.1512 104.631 77.1084C104.631 69.8827 101.24 65.0871 96.373 61.5862C91.4111 58.0163 84.9984 55.8659 79.1781 54.081L67.928 50.6402L67.2799 50.4337C64.0864 49.3757 61.76 47.9349 60.2019 46.1371C58.5108 44.1844 57.854 41.9565 57.854 39.7286C57.854 36.447 59.85 34.1417 62.494 32.7137C62.4811 32.7137 62.4682 32.7137 62.4554 32.7094C62.2708 32.6793 62.0819 32.6492 61.8931 32.6234C61.8759 32.6234 61.8587 32.6191 61.8416 32.6148H61.8373ZM55.1027 32.5374C53.7764 32.6793 52.523 32.9116 51.3727 33.2385C51.0336 33.3331 50.7031 33.4406 50.3812 33.5524C47.0804 34.718 44.8914 36.7609 44.8914 39.7329C44.8914 43.4102 47.0246 46.8553 53.6562 48.8725L64.9063 52.3133C76.5126 55.8745 91.6686 61.212 91.6686 77.1127C91.6686 77.3492 91.6643 77.5858 91.6558 77.818C91.6558 77.8825 91.6558 77.9471 91.6515 78.0159C91.6472 78.2008 91.6386 78.3901 91.6257 78.575C91.6257 78.6395 91.6214 78.704 91.6171 78.7642C91.6043 78.9922 91.5828 79.2244 91.5656 79.4524C91.5613 79.5169 91.5527 79.5771 91.5485 79.6416C91.5313 79.8266 91.5098 80.0115 91.4884 80.1965C91.4798 80.2524 91.4755 80.3083 91.4669 80.3642C91.4111 80.8158 91.3381 81.2631 91.2566 81.7061C91.2437 81.7792 91.2308 81.848 91.218 81.9168C91.1321 82.3555 91.0377 82.7942 90.9304 83.2243C90.9089 83.3018 90.8917 83.3792 90.8703 83.4566C90.8316 83.6028 90.793 83.7491 90.7501 83.8953C90.7329 83.9598 90.7158 84.0243 90.6943 84.0888C90.6299 84.3039 90.5655 84.5189 90.4968 84.734C90.484 84.7813 90.4668 84.8243 90.4496 84.8716C90.3981 85.0351 90.3423 85.1942 90.2822 85.3533C90.2565 85.4221 90.235 85.4867 90.2093 85.5555C90.1492 85.7232 90.0848 85.8909 90.0204 86.0544C90.0032 86.0931 89.9904 86.1361 89.9732 86.1748C89.9002 86.3598 89.823 86.5404 89.7457 86.721C89.7114 86.7984 89.677 86.8759 89.6427 86.9533C89.5912 87.0651 89.544 87.1769 89.4925 87.2888C89.4495 87.3877 89.4023 87.4823 89.3594 87.5812C89.2736 87.7619 89.1834 87.9425 89.0933 88.1188C89.0675 88.1705 89.0418 88.2178 89.016 88.2694C88.943 88.4113 88.8701 88.5489 88.7928 88.6866C88.7499 88.764 88.707 88.8457 88.664 88.9231C88.5954 89.0479 88.5224 89.1726 88.4494 89.2973C88.4108 89.3661 88.3679 89.4349 88.3292 89.5038C88.2348 89.6672 88.1361 89.8263 88.0331 89.9855C87.9902 90.0543 87.9429 90.1274 87.9 90.1962C87.8228 90.3123 87.7498 90.4285 87.6725 90.5446C87.6253 90.6134 87.5824 90.6822 87.5352 90.751C87.4279 90.9102 87.3163 91.065 87.2047 91.2198C87.1446 91.3059 87.0845 91.3876 87.0201 91.4693C86.9557 91.5553 86.8956 91.6413 86.8312 91.7274C86.7626 91.8177 86.6982 91.9037 86.6295 91.994C86.578 92.0628 86.5265 92.1274 86.4707 92.1919C86.3591 92.3338 86.2432 92.4757 86.1273 92.6177C86.0372 92.7252 85.9513 92.8327 85.8612 92.9359C85.8011 93.0048 85.7453 93.0736 85.6852 93.1424C85.5994 93.237 85.5178 93.3359 85.432 93.4305C85.3418 93.5295 85.2517 93.6327 85.1615 93.7316C85.0628 93.8391 84.9598 93.9467 84.8568 94.0542C84.7881 94.123 84.7194 94.1961 84.6508 94.2649C84.5735 94.3467 84.4962 94.4241 84.4147 94.5015C84.1314 94.7854 83.8438 95.0606 83.5476 95.3316C83.4575 95.4133 83.3717 95.495 83.2815 95.5724C83.1957 95.6498 83.1098 95.7273 83.0197 95.8047C82.9682 95.8477 82.9167 95.8907 82.8695 95.938C82.5218 96.2391 82.1612 96.5359 81.7964 96.8197C81.7492 96.8541 81.702 96.8928 81.659 96.9272C81.2985 97.2068 80.9251 97.4821 80.5473 97.7487C80.4787 97.796 80.41 97.8433 80.3413 97.8907C80.2383 97.9638 80.131 98.0369 80.028 98.11C79.9593 98.1573 79.8949 98.2003 79.8262 98.2476C78.5343 99.1078 77.1564 99.8949 75.7099 100.596C75.6713 100.613 75.6327 100.635 75.594 100.652C74.242 101.301 72.8341 101.886 71.3704 102.394C77.3753 101.336 82.8008 99.1766 87.1017 96.0842C93.3512 91.5897 97.2272 85.1469 97.2272 77.1041C97.2272 69.8784 93.8362 65.0828 88.9688 61.5819C84.0069 58.012 77.5943 55.8616 71.7739 54.0767L60.5238 50.6359L59.8757 50.4294C56.6823 49.3714 54.3558 47.9306 52.7977 46.1328C51.1066 44.1801 50.4499 41.9522 50.4499 39.7243C50.4499 36.2921 52.6303 33.9223 55.459 32.5159C55.4761 32.5073 55.4933 32.4987 55.5105 32.4901C55.3731 32.503 55.24 32.5159 55.107 32.5288L55.1027 32.5374ZM36.9721 75.1686C37.1867 76.3643 37.5129 77.5256 37.955 78.6352C37.9808 78.6997 38.0065 78.7599 38.0323 78.8245C38.6933 80.4244 39.6076 81.9125 40.8094 83.22C40.951 83.3749 41.1013 83.5297 41.2515 83.6802C43.7625 86.1748 47.4066 87.9425 52.4544 88.4629C50.6258 87.6457 49.0506 86.5963 47.72 85.3533C44.7325 82.5663 43.1186 78.9492 42.4963 75.1729H36.9721V75.1686ZM44.372 75.1686C45.5524 81.6975 49.9734 87.3146 59.5152 88.4199C58.6524 88.5145 57.7382 88.5748 56.7853 88.6049C57.7424 88.5791 58.6524 88.5145 59.5194 88.4199C59.5881 88.4113 59.6611 88.407 59.7298 88.3984C57.9571 87.5898 56.429 86.5619 55.1284 85.349C52.141 82.562 50.5271 78.9449 49.9047 75.1686H44.3806H44.372ZM82.0024 18.4689C92.2867 22.0946 101.283 29.9095 103.339 43.2167H108.864C107.434 34.4556 102.82 28.3009 96.8366 24.2365C92.4155 21.2301 87.2218 19.3549 82.0024 18.4689Z" fill="white"/>
</g>
<path d="M29.2346 147.172H25.0586V157H18.9026V130.9H28.9466C35.7146 130.9 40.7906 132.484 40.7906 138.964C40.7906 142.816 38.6666 145.012 35.6786 146.164L42.1226 157H34.8866L29.2346 147.172ZM25.0586 136.084V141.988H29.1266C32.0426 141.988 34.2746 141.484 34.2746 139.036C34.2746 136.624 32.0426 136.084 29.1266 136.084H25.0586ZM107.024 130.9H113.792L123.656 157H116.96L115.376 152.356H105.296L103.748 157H97.1961L107.024 130.9ZM106.988 147.352H113.72L110.372 137.416L106.988 147.352ZM203.838 147.28C202.902 153.328 198.006 157.468 191.418 157.468C183.282 157.468 178.35 152.284 178.35 143.932C178.35 135.688 183.462 130.468 191.598 130.468C198.15 130.468 202.758 134.716 203.658 140.656H197.61C196.926 137.092 194.298 135.544 191.382 135.544C187.71 135.544 184.866 138.604 184.866 143.932C184.866 149.44 187.71 152.392 191.454 152.392C194.118 152.392 197.07 151.24 197.79 147.28H203.838ZM268.17 157H262.014V130.9H268.17V157ZM344.373 157L333.897 139V157H327.957V130.9H335.445L345.921 148.9V130.9H351.861V157H344.373ZM435.09 139.072H429.042C428.502 137.272 426.666 135.544 423.318 135.544C419.538 135.544 416.586 138.352 416.586 143.86C416.586 149.368 419.322 152.392 423.426 152.392C426.27 152.392 429.222 151.312 429.222 148V147.496H422.922V142.456H435.378V157H430.662L430.482 154.12C428.79 156.388 426.234 157.468 422.49 157.468C414.786 157.468 410.07 152.212 410.07 143.86C410.07 135.616 415.47 130.468 423.39 130.468C429.186 130.468 433.866 133.384 435.09 139.072Z" fill="#EEF0F0"/>
<defs>
<clipPath id="clip0_127_39">
<rect width="422" height="89" fill="white" transform="translate(16 16)"/>
</clipPath>
</defs>
</svg>
